{"title":"Lo (2009) Xvid -whitevegeta-","uid":5504902,"size":733870696,"categoryP":"video","categoryS":"movies","magnet":"?xt=urn:btih:bbfa690679f07f2ff5b0fe0f9ed0a0a4765067ca&amp;dn=Lo+%282009%29+Xvid+-whitevegeta-&amp;tr=udp%3A%2F%2Ftracker.openbittorrent.com%3A80&amp;tr=udp%3A%2F%2Fopen.demonii.com%3A1337&amp;tr=udp%3A%2F%2Ftracker.coppersurfer.tk%3A6969&amp;tr=udp%3A%2F%2Fexodus.desync.com%3A6969","seeders":0,"leechers":1,"uploader":"whitevegeta","files":-1,"time":1271763094,"description":"Love presents many challenges to couples...but none so daunting as the one Justin faces with his girlfriend April. Kidnapped by demons, April's mystery begins to unfold when he finds an ancient book that she has left behind. Using the book, he contacts the demon Lo, ordering it to help him rescue his girl from the fiery pits. But Lo has other plans for his new master...dinner being one of them\n\nFormaat                          : AVI\nFormaat/Info                     : Audio Video Interleave\nBestandsgrootte                  : 700 MiB\nDuration                         : 1h 20mn\nTotale bitrate                   : 1 212 Kbps\n\nVideo\nFormaat                          : MPEG-4 Visual\nFormat profile                   : Streaming Video@L1\nFormat settings, BVOP            : Ja\nFormat settings, QPel            : Nee\nFormat settings, GMC             : No warppoints\nFormat settings, Matrix          : Default\nMuxing mode                      : Packed bitstream\nCodec ID                         : XVID\nCodec ID/Hint                    : XviD\nDuration                         : 1h 20mn\nBitrate                          : 1 062 Kbps\nBreedte                          : 624 pixels\nHoogte                           : 352 pixels\nBeeldverhouding                  : 16/9\nFramerate                        : 23,976 fps\nResolutie                        : 24 bits\nColorimetry                      : 4:2:0\nScan type                        : Progressive\nBits/(Pixel*Frame)               : 0.202\nStream size                      : 613 MiB (88%)\nGebruikte encoder-bibliotheek    : XviD 50\n\nAudio\nFormaat                          : MPEG Audio\nFormat version                   : Version 1\nFormat profile                   : Layer 3\nCodec ID                         : 55\nCodec ID/Hint                    : MP3\nDuration                         : 1h 20mn\nBitrate-modus                    : Variable\nBitrate                          : 138 Kbps\nMinimum bit rate                 : 32,0 Kbps\nKanaal(en)                       : 2 kanalen\nSamplerate                       : 48,0 KHz\nResolutie                        : 16 bits\nStream size                      : 79,7 MiB (11%)\nAlignment                        : Aligned on interleaves\nInterleave, duration             : 24 ms (0,58 video frame)\nInterleave, preload duration     : 322 ms\nGebruikte encoder-bibliotheek    : LAME3.98r\nInstellingen codering            : VBR (mtrh)","torrent":{"xt":"urn:btih:bbfa690679f07f2ff5b0fe0f9ed0a0a4765067ca","amp;dn":"Lo+%282009%29+Xvid+-whitevegeta-","amp;tr":["udp%3A%2F%2Ftracker.openbittorrent.com%3A80","udp%3A%2F%2Fopen.demonii.com%3A1337","udp%3A%2F%2Ftracker.coppersurfer.tk%3A6969","udp%3A%2F%2Fexodus.desync.com%3A6969"],"infoHash":"bbfa690679f07f2ff5b0fe0f9ed0a0a4765067ca","infoHashBuffer":{"type":"Buffer","data":[187,250,105,6,121,240,127,47,245,176,254,15,158,208,160,164,118,80,103,202]},"announce":[],"urlList":[]}}